<svg width="32" height="32" viewBox="0 0 32 32" fill="none" xmlns="http://www.w3.org/2000/svg">
<g opacity="1" clip-path="url(#clip0_75_797)">
<path d="M15.5761 10.0145L5.33331 18.4506V27.5556C5.33331 27.7913 5.42696 28.0174 5.59366 28.1841C5.76036 28.3508 5.98645 28.4445 6.2222 28.4445L12.4478 28.4283C12.6827 28.4272 12.9077 28.333 13.0734 28.1664C13.2392 27.9999 13.3322 27.7744 13.3322 27.5395V22.2222C13.3322 21.9865 13.4258 21.7604 13.5925 21.5937C13.7592 21.427 13.9853 21.3333 14.2211 21.3333H17.7766C18.0124 21.3333 18.2385 21.427 18.4052 21.5937C18.5719 21.7604 18.6655 21.9865 18.6655 22.2222V27.5356C18.6652 27.6525 18.6879 27.7684 18.7324 27.8766C18.7769 27.9848 18.8423 28.0831 18.9249 28.1659C19.0075 28.2487 19.1056 28.3145 19.2136 28.3593C19.3216 28.4042 19.4375 28.4272 19.5544 28.4272L25.7778 28.4445C26.0135 28.4445 26.2396 28.3508 26.4063 28.1841C26.573 28.0174 26.6666 27.7913 26.6666 27.5556V18.4445L16.4261 10.0145C16.3057 9.91742 16.1557 9.8645 16.0011 9.8645C15.8465 9.8645 15.6965 9.91742 15.5761 10.0145ZM31.7555 15.7483L27.1111 11.92V4.22502C27.1111 4.04821 27.0408 3.87864 26.9158 3.75361C26.7908 3.62859 26.6212 3.55835 26.4444 3.55835H23.3333C23.1565 3.55835 22.9869 3.62859 22.8619 3.75361C22.7369 3.87864 22.6666 4.04821 22.6666 4.22502V8.2589L17.6928 4.16668C17.2154 3.77389 16.6165 3.55913 15.9983 3.55913C15.3801 3.55913 14.7812 3.77389 14.3039 4.16668L0.241089 15.7483C0.173582 15.8041 0.117731 15.8727 0.0767265 15.9501C0.0357221 16.0275 0.0103682 16.1122 0.00211337 16.1994C-0.00614141 16.2866 0.00286476 16.3745 0.0286173 16.4582C0.0543698 16.5419 0.096364 16.6198 0.1522 16.6872L1.56887 18.4095C1.62455 18.4772 1.69304 18.5332 1.77042 18.5744C1.8478 18.6156 1.93255 18.6412 2.01981 18.6496C2.10707 18.658 2.19513 18.6491 2.27896 18.6235C2.36278 18.5978 2.44072 18.5558 2.50831 18.5L15.5761 7.73668C15.6965 7.63964 15.8465 7.58672 16.0011 7.58672C16.1557 7.58672 16.3057 7.63964 16.4261 7.73668L29.4944 18.5C29.5619 18.5559 29.6397 18.5978 29.7234 18.6236C29.8071 18.6494 29.8951 18.6584 29.9823 18.6501C30.0695 18.6418 30.1542 18.6165 30.2316 18.5755C30.309 18.5345 30.3775 18.4786 30.4333 18.4111L31.85 16.6889C31.9058 16.621 31.9476 16.5428 31.973 16.4587C31.9985 16.3747 32.0071 16.2864 31.9983 16.199C31.9895 16.1116 31.9635 16.0268 31.9219 15.9494C31.8802 15.8721 31.8237 15.8038 31.7555 15.7483Z" fill="#fff"/>
</g>
<defs>
<clipPath id="clip0_75_797">
<rect width="32" height="32" fill="white"/>
</clipPath>
</defs>
</svg>
